<svg xmlns="http://www.w3.org/2000/svg" viewBox="0 0 286.13 37.24"><defs><style>.cls-1{fill:#777876;}.cls-2{fill:#fff;}.cls-3{fill:#134729;}</style></defs><title>Asset 1</title><g id="Layer_2" data-name="Layer 2"><g id="Layer_1-2" data-name="Layer 1"><path class="cls-1" d="M238.91,31.24a.63.63,0,0,0,.27.32l.63.39,0,2.54h-8l.48.67c.61.82-.1,1.08-.1,1.08v.47h9.85v-.47a1.88,1.88,0,0,1-.93-1.45V7.33a2,2,0,0,1,.93-1.46V5.4h-3.14Z"/><path class="cls-1" d="M219.7,34.79V21.17l-2.21-3.12V31.24a.63.63,0,0,0,.27.32l.63.39,0,2.54H212.6v.3a1.88,1.88,0,0,1-.93,1.45v.47h9v-.47A1.88,1.88,0,0,1,219.7,34.79Z"/><path class="cls-1" d="M222.8,6.65c0-.44.21-.76.69-.78V5.4h-1.58Z"/><path class="cls-1" d="M284.33,34.81l-.42-1.28v1h-7.17l.15.46c.17.69,0,1.26-.64,1.29v.47h9.87v-.47A2.63,2.63,0,0,1,284.33,34.81Z"/><path class="cls-1" d="M282.89,31.41l.36.08L282.43,29l-2.2-6.76L275.45,7.54a1.17,1.17,0,0,1,.8-1.67V5.4h-2.48l8.28,25.45C282.14,31.13,282.66,31.35,282.89,31.41Z"/><polygon class="cls-1" points="267.45 19.93 267.84 18.73 266.19 13.66 264.22 19.73 266.19 20.3 267.45 19.93"/><path class="cls-1" d="M266.19,30.45l-5-1.43-.78,2.39.57,0v3.05h-5.75l-.1.3a2.62,2.62,0,0,1-1.81,1.45v.47h9.87v-.47c-.65,0-.81-.6-.64-1.29l1.31-4,5.86,1.68,1.66-.48v-.69l.58,0L271.19,29Z"/><path class="cls-1" d="M50.23,21.05A9.21,9.21,0,0,1,59.54,12a9.91,9.91,0,0,1,2.33.29A8.07,8.07,0,0,0,56,9.76a7.88,7.88,0,0,0-8,7.75,7.63,7.63,0,0,0,2.46,5.59A8.65,8.65,0,0,1,50.23,21.05Z"/><path class="cls-1" d="M73.75,17.51A17.65,17.65,0,0,1,56,35a17.87,17.87,0,0,1-6.6-1.27,16.49,16.49,0,0,0,10.14,3.48A16.32,16.32,0,0,0,76,21.05a15.91,15.91,0,0,0-3.43-9.85A17,17,0,0,1,73.75,17.51Z"/><path class="cls-1" d="M85.1,10.57l-.78,3.95.43.14s1.61-2.06,6.3-2.15h.89V10.3H87.51A12.08,12.08,0,0,0,85.1,10.57Z"/><path class="cls-1" d="M113.1,5.4l1.28,6.45-2.38.83-.59-.74s-1.42-1.57-5.35-1.65H101.7v21c0,.07.14.23.27.31l.63.39,0,2.55H96.81v.3a1.88,1.88,0,0,1-.93,1.45v.47h9v-.47a1.88,1.88,0,0,1-.93-1.45V12.51h5.72c4.72.09,6.36,2.15,6.36,2.15l.41-.14L114.59,5.4Z"/><path class="cls-1" d="M30.23,6l1.28,6.47-2.25.67-.53-.4c-4.34-3.22-10.62-3.63-13.29-2.69a8,8,0,0,0-5.68,7.44A7.68,7.68,0,0,0,12.22,23a8.16,8.16,0,0,1-.25-2,9.36,9.36,0,0,1,6.57-8.69c2.94-1,9.66-.73,14.52,2.88l.45-.14L31.75,6.18C31.21,6.13,30.7,6.08,30.23,6Z"/><path class="cls-1" d="M30.33,28.48l-1,5.15-1,.08a44.56,44.56,0,0,0-4.87.7l-.06-.29h0l.06.29a27.66,27.66,0,0,1-5.72.62,17.81,17.81,0,0,1-6.59-1.27,16.46,16.46,0,0,0,10.13,3.48,27,27,0,0,0,5.47-.59,43.69,43.69,0,0,1,5-.72L33.51,27l-.45-.14A15.4,15.4,0,0,1,30.33,28.48Z"/><path class="cls-1" d="M174.61,21.05a9.36,9.36,0,0,1,6.56-8.69c2.94-1,9.66-.73,14.52,2.88l.46-.14-1.76-8.92c-.55,0-1-.1-1.52-.16l1.27,6.47-2.25.67-.53-.4c-4.34-3.22-10.61-3.63-13.29-2.69a8,8,0,0,0-5.67,7.44A7.7,7.7,0,0,0,174.85,23,8.67,8.67,0,0,1,174.61,21.05Z"/><path class="cls-1" d="M180.29,24.43a3.8,3.8,0,0,0,1.49.95c.39,0,.79,0,1.21-.08l0,0V22.2a2.47,2.47,0,0,0-.38,0A12.86,12.86,0,0,0,180.29,24.43Z"/><path class="cls-1" d="M196.77,21.3A10.77,10.77,0,0,1,193,23V33.54l-2.06.17a44.81,44.81,0,0,0-4.85.69l-.06-.29h0l.05.29a27.58,27.58,0,0,1-5.72.62,17.72,17.72,0,0,1-6.58-1.27,16.44,16.44,0,0,0,10.12,3.48,26.26,26.26,0,0,0,5.48-.6,46.41,46.41,0,0,1,5-.71h0l.84-.07V25.43a9.67,9.67,0,0,0,4.84-2.1c.85-.95,0-2.84,0-2.84A4.61,4.61,0,0,1,196.77,21.3Z"/><path class="cls-1" d="M155.34,17.51A17.65,17.65,0,0,1,137.6,35a17.87,17.87,0,0,1-6.6-1.27,16.45,16.45,0,0,0,26.56-12.71,15.91,15.91,0,0,0-3.43-9.85A17.2,17.2,0,0,1,155.34,17.51Z"/><path class="cls-1" d="M131.83,21.05A9.21,9.21,0,0,1,141.14,12a9.83,9.83,0,0,1,2.32.29,8,8,0,0,0-5.86-2.51,7.88,7.88,0,0,0-8,7.75,7.61,7.61,0,0,0,2.46,5.59A8.65,8.65,0,0,1,131.83,21.05Z"/><path class="cls-2" d="M228.23,3.05l.6.39a1.12,1.12,0,0,1,.31.34V15.59L222.8,6.65l-.89-1.25L221,4.09a2.63,2.63,0,0,1-.27-.47l.57,0V.53H206.8l0,2.52.59.4a1.06,1.06,0,0,1,.32.33V31.24c0,.07-.15.24-.26.3l-.67.39v2.56h11.62l0-2.54-.63-.39a.63.63,0,0,1-.27-.32V18.05l2.21,3.12,7.63,10.74v2.58h12.5l0-2.54-.63-.39a.63.63,0,0,1-.27-.32V3.8a.92.92,0,0,1,.3-.35l.62-.39V.53H228.21Zm1.31-1.19h9v.47a2.37,2.37,0,0,0-.49.42,1.6,1.6,0,0,0-.44,1V31.24a1.88,1.88,0,0,0,.93,1.46v.47h-9.85V32.7s.71-.26.09-1.08L219.7,18.87l-2.65-3.73-.89-1.25V31.24a1.88,1.88,0,0,0,.93,1.46v.47h-9V32.7a1.88,1.88,0,0,0,.92-1.46V3.78a2,2,0,0,0-.92-1.45V1.86H220v.47a.64.64,0,0,0-.62.42,2.52,2.52,0,0,0,.57,2.11l.38.54,10.19,14.35v-16a2,2,0,0,0-.93-1.45Z"/><path class="cls-2" d="M283.91,33.53V31.65l-.65-.16-.36-.08c-.23-.06-.75-.28-.84-.56L273.77,5.4l-.58-1.78.84,0V.53H258.35v1.8l-.26,1.22,1.11.06-8.86,27.22c-.1.3-.62.52-.83.57l-1,.23v2.86H261V31.44l-.57,0L261.2,29l5,1.43,5-1.43.78,2.39-.58,0v3.05h12.53Zm-11.19-.83c.6,0,.77-.52.66-1.14,0,0,0-.1,0-.15l-1-3-.34-1-5.86,1.68-5.86-1.68-1.31,4c-.17.68,0,1.26.64,1.29v.47h-9.87V32.7a2.62,2.62,0,0,0,1.81-1.45l1.9-5.83,2.2-6.76L260.47,4c.44-1.42-.79-1.66-.79-1.66V1.86h13v.47a1.29,1.29,0,0,0-.66.42A1.26,1.26,0,0,0,271.91,4l.46,1.41,4.31,13.26,2.21,6.76,1.89,5.84a2.11,2.11,0,0,0,1,1.11,3.34,3.34,0,0,0,.81.33v.47h-9.87Z"/><path class="cls-2" d="M266.78,11.18l-.59-1.81-3.66,11.25,1.07.31,2.59.75.76-.22,2.9-.84-1.31-4Zm.67,8.75-1.26.36-2-.56,2-6.06,1.65,5.06.32,1Z"/><path class="cls-2" d="M56,0A17.65,17.65,0,0,0,38.26,17.51,17.55,17.55,0,0,0,49.4,33.76,17.87,17.87,0,0,0,56,35,17.65,17.65,0,0,0,73.75,17.51a17,17,0,0,0-1.22-6.31A17.75,17.75,0,0,0,56,0ZM39.59,17.51A16.44,16.44,0,0,1,68.09,6.6a14.31,14.31,0,0,1,1.22,1.48,15.89,15.89,0,0,1,3.11,9.43A16.45,16.45,0,0,1,44.8,29.31,16,16,0,0,1,39.59,17.51Z"/><path class="cls-2" d="M49.77,24.24a8.89,8.89,0,0,0,1.58,1.13A9.48,9.48,0,0,0,56,26.59a9.2,9.2,0,0,0,9.31-9.08,8.76,8.76,0,0,0-1.12-4.31,8.87,8.87,0,0,0-1.07-1.52A9.38,9.38,0,0,0,56,8.43a9.21,9.21,0,0,0-9.31,9.08A8.94,8.94,0,0,0,49.77,24.24ZM64,17.51a7.87,7.87,0,0,1-8,7.75,8.07,8.07,0,0,1-5.52-2.16A7.63,7.63,0,0,1,48,17.51a7.88,7.88,0,0,1,8-7.75,8.07,8.07,0,0,1,5.87,2.51A7.59,7.59,0,0,1,64,17.51Z"/><path class="cls-2" d="M112.14.53H81.49L79.24,11.88l2.42.75.57-.67a5.48,5.48,0,0,1,2.87-1.39,12.08,12.08,0,0,1,2.41-.27h4.43V31.24c0,.07-.15.23-.26.3l-.67.38v2.57h11.62l0-2.55-.63-.39c-.13-.08-.27-.24-.27-.31V10.29h4.36c3.93.08,5.31,1.61,5.35,1.65l.59.74,2.38-.83L113.1,5.4ZM92.33,33.17V32.7a1.88,1.88,0,0,0,.93-1.46V9H87.51a13.19,13.19,0,0,0-2.13.2,8.66,8.66,0,0,0-3.45,1.31,3.8,3.8,0,0,0-.72.64L80.78,11l1.8-9.12h28.47l.17.89.53,2.65L112.86,11l-.41.14S110.81,9.05,106.09,9h-5.72V31.24a1.88,1.88,0,0,0,.93,1.46v.47h-9Z"/><path class="cls-2" d="M15.44,10.07c2.67-.94,9-.53,13.29,2.69l.53.4,2.25-.67L30.23,6l-.91-4.63-1-.08A45.29,45.29,0,0,1,23.45.62,27.58,27.58,0,0,0,17.73,0,17.64,17.64,0,0,0,0,17.51,17.54,17.54,0,0,0,11.14,33.76,17.81,17.81,0,0,0,17.73,35a27.66,27.66,0,0,0,5.72-.62l-.06-.29h0l.06.29a44.56,44.56,0,0,1,4.87-.7l1-.08,1-5.15,1.18-5.95-2.25-.66-.53.39c-4.35,3.22-10.62,3.64-13.33,2.68A8.14,8.14,0,0,1,12.22,23a7.68,7.68,0,0,1-2.46-5.53A8,8,0,0,1,15.44,10.07Zm-2.3,15.31a9.69,9.69,0,0,0,1.86.83c2.94,1,9.65.73,14.52-2.88l.45.13-.24,1.22-.87,4.41-.65,3.3a46.41,46.41,0,0,0-5,.71,26.24,26.24,0,0,1-5.47.6A16.43,16.43,0,0,1,8,30.5a15.17,15.17,0,0,1-1.44-1.19,16,16,0,0,1-5.21-11.8A16.31,16.31,0,0,1,17.73,1.33a26.3,26.3,0,0,1,5.47.59,46.05,46.05,0,0,0,5,.72l.16.81.47,2.38L30,11.56l-.45.14C24.65,8.09,17.94,7.78,15,8.82a9.36,9.36,0,0,0-6.57,8.69,9,9,0,0,0,3.15,6.74A10.88,10.88,0,0,0,13.14,25.38Z"/><path class="cls-2" d="M197.08,14.94l-1.31.93c-1.43,1-2.89.61-5.14-.11a15.37,15.37,0,0,0-3.87-.88,14,14,0,0,0-11,5.16l-.74.89.78.85c.19.22,2,2.1,4.08,1.25a7.84,7.84,0,0,1,2.81-.82,2.47,2.47,0,0,1,.38,0v3.1h0c-.42.05-.82.07-1.21.08a10.73,10.73,0,0,1-3.74-.44,8.38,8.38,0,0,1-3.19-1.9,7.7,7.7,0,0,1-2.45-5.53,8,8,0,0,1,5.67-7.44c2.68-.94,9-.53,13.29,2.69l.53.4,2.25-.67L192.87,6,192,1.39l-1-.08a45,45,0,0,1-4.87-.69A27.42,27.42,0,0,0,180.36,0a17.64,17.64,0,0,0-17.72,17.51,17.54,17.54,0,0,0,11.14,16.25A17.72,17.72,0,0,0,180.36,35a27.58,27.58,0,0,0,5.72-.62l-.05-.29h0l.06.29a44.81,44.81,0,0,1,4.85-.69l2.06-.17V23a10.77,10.77,0,0,0,3.75-1.66,6.68,6.68,0,0,0,.75-.62c1.38-1.55.34-4,.22-4.27ZM185.84,33.1a26.26,26.26,0,0,1-5.48.6,16.45,16.45,0,0,1-9.75-3.2,18.18,18.18,0,0,1-1.44-1.19A16,16,0,0,1,164,17.51a16.31,16.31,0,0,1,16.4-16.18,26.32,26.32,0,0,1,5.48.59,45.81,45.81,0,0,0,5,.72l.17.81.46,2.38,1.14,5.73-.46.14c-4.86-3.61-11.58-3.92-14.52-2.88a9.36,9.36,0,0,0-6.56,8.69,9,9,0,0,0,3.15,6.74,10.34,10.34,0,0,0,1.56,1.13,9.88,9.88,0,0,0,1.85.83,14.38,14.38,0,0,0,6.74.24V21.14h0c-1.1-.4-2.45-.49-5.06.69a1.85,1.85,0,0,1-1.56-.18,4.13,4.13,0,0,1-1-.75,12.66,12.66,0,0,1,9.94-4.68c3.44.18,6.71,2.95,9.84.74a5.62,5.62,0,0,1,.34,1.22,2,2,0,0,1-.34,1.62,5.88,5.88,0,0,1-1.66,1.11,13.53,13.53,0,0,1-3.18,1V32.32l-.85.07h0A46.17,46.17,0,0,0,185.84,33.1Z"/><path class="cls-2" d="M137.6,0a17.65,17.65,0,0,0-17.74,17.51A17.55,17.55,0,0,0,131,33.76,17.87,17.87,0,0,0,137.6,35a17.65,17.65,0,0,0,17.74-17.52,17.2,17.2,0,0,0-1.21-6.31A17.75,17.75,0,0,0,137.6,0ZM121.19,17.51A16.44,16.44,0,0,1,149.69,6.6a15.72,15.72,0,0,1,1.22,1.48A15.89,15.89,0,0,1,154,17.51a16.45,16.45,0,0,1-27.62,11.8A16,16,0,0,1,121.19,17.51Z"/><path class="cls-2" d="M131.36,24.24A9.35,9.35,0,0,0,133,25.37a9.48,9.48,0,0,0,4.65,1.22,9.21,9.21,0,0,0,9.31-9.08,8.87,8.87,0,0,0-1.12-4.31,10,10,0,0,0-1.07-1.53,9.43,9.43,0,0,0-7.12-3.24,9.21,9.21,0,0,0-9.31,9.08A9,9,0,0,0,131.36,24.24Zm14.22-6.73a7.87,7.87,0,0,1-8,7.75,8.05,8.05,0,0,1-5.52-2.16,7.61,7.61,0,0,1-2.46-5.59,7.88,7.88,0,0,1,8-7.75,8,8,0,0,1,5.86,2.51A7.59,7.59,0,0,1,145.58,17.51Z"/><path class="cls-3" d="M229.54,2.33a2,2,0,0,1,.93,1.45v16L220.28,5.4l-.38-.54a2.52,2.52,0,0,1-.57-2.11.64.64,0,0,1,.62-.42V1.86H208.13v.47a2,2,0,0,1,.92,1.45V31.24a1.88,1.88,0,0,1-.92,1.46v.47h9V32.7a1.88,1.88,0,0,1-.93-1.46V13.89l.89,1.25,2.65,3.73,9.05,12.75c.62.82-.09,1.08-.09,1.08v.47h9.85V32.7a1.88,1.88,0,0,1-.93-1.46V3.78a1.6,1.6,0,0,1,.44-1,2.37,2.37,0,0,1,.49-.42V1.86h-9Z"/><path class="cls-3" d="M281.78,32.37a2.11,2.11,0,0,1-1-1.11l-1.89-5.84-2.21-6.76L272.37,5.4,271.91,4a1.26,1.26,0,0,1,.14-1.24,1.29,1.29,0,0,1,.66-.42V1.86h-13v.47s1.23.24.79,1.66L255.7,18.66l-2.2,6.76-1.9,5.83a2.62,2.62,0,0,1-1.81,1.45v.47h9.87V32.7c-.65,0-.81-.61-.64-1.29l1.31-4,5.86,1.68,5.86-1.68.34,1,1,3c0,.05,0,.1,0,.15.11.62-.06,1.11-.66,1.14v.47h9.87V32.7A3.34,3.34,0,0,1,281.78,32.37Zm-15.59-23,.59,1.81,1.76,5.41,1.31,4-2.9.84-.76.22-2.59-.75-1.07-.31Z"/><path class="cls-3" d="M68.09,6.6a16.44,16.44,0,0,0-28.5,10.91,16,16,0,0,0,5.21,11.8,16.44,16.44,0,0,0,27.62-11.8,15.89,15.89,0,0,0-3.11-9.43A14.31,14.31,0,0,0,68.09,6.6Zm-3.9,6.6a8.76,8.76,0,0,1,1.12,4.31A9.2,9.2,0,0,1,56,26.59a9.48,9.48,0,0,1-4.65-1.22,9.18,9.18,0,0,1-4.66-7.86A9.21,9.21,0,0,1,56,8.43a9.38,9.38,0,0,1,7.12,3.25A8.87,8.87,0,0,1,64.19,13.2Z"/><path class="cls-3" d="M111.22,2.75l-.17-.89H82.58L80.78,11l.43.14a3.8,3.8,0,0,1,.72-.64,8.66,8.66,0,0,1,3.45-1.31A13.19,13.19,0,0,1,87.51,9h5.75V31.24a1.88,1.88,0,0,1-.93,1.46v.47h9V32.7a1.88,1.88,0,0,1-.93-1.46V9h5.72c4.72.08,6.36,2.15,6.36,2.15l.41-.14L111.75,5.4Z"/><path class="cls-3" d="M15,8.82c2.94-1,9.65-.73,14.52,2.88l.45-.14L28.84,5.83l-.47-2.38-.16-.81a46.05,46.05,0,0,1-5-.72,26.3,26.3,0,0,0-5.47-.59A16.31,16.31,0,0,0,1.33,17.51a16,16,0,0,0,5.21,11.8A15.17,15.17,0,0,0,8,30.5a16.43,16.43,0,0,0,9.75,3.2,26.24,26.24,0,0,0,5.47-.6,46.41,46.41,0,0,1,5-.71l.65-3.3.87-4.41L30,23.46l-.45-.13C24.65,26.94,17.94,27.24,15,26.21a9.69,9.69,0,0,1-1.86-.83,10.88,10.88,0,0,1-1.56-1.13,9,9,0,0,1-3.15-6.74A9.36,9.36,0,0,1,15,8.82Z"/><path class="cls-3" d="M196.53,17c-3.13,2.21-6.4-.56-9.84-.74a12.66,12.66,0,0,0-9.94,4.68,4.13,4.13,0,0,0,1,.75,1.85,1.85,0,0,0,1.56.18c2.61-1.18,4-1.09,5.06-.69h0v5.31a14.38,14.38,0,0,1-6.74-.24,9.88,9.88,0,0,1-1.85-.83,10.34,10.34,0,0,1-1.56-1.13,9,9,0,0,1-3.15-6.74,9.36,9.36,0,0,1,6.56-8.69c2.94-1,9.66-.73,14.52,2.88l.46-.14-1.14-5.73L191,3.45l-.17-.81a45.81,45.81,0,0,1-5-.72,26.32,26.32,0,0,0-5.48-.59A16.31,16.31,0,0,0,164,17.51a16,16,0,0,0,5.21,11.8,18.18,18.18,0,0,0,1.44,1.19,16.45,16.45,0,0,0,9.75,3.2,26.26,26.26,0,0,0,5.48-.6,46.17,46.17,0,0,1,5-.71h0l.85-.07V21.89a13.53,13.53,0,0,0,3.18-1,5.88,5.88,0,0,0,1.66-1.11,2,2,0,0,0,.34-1.62A5.62,5.62,0,0,0,196.53,17Z"/><path class="cls-3" d="M149.69,6.6a16.44,16.44,0,0,0-28.5,10.91,16,16,0,0,0,5.21,11.8A16.44,16.44,0,0,0,154,17.51a15.89,15.89,0,0,0-3.11-9.43A15.72,15.72,0,0,0,149.69,6.6Zm-3.9,6.6a8.87,8.87,0,0,1,1.12,4.31,9.21,9.21,0,0,1-9.31,9.08A9.48,9.48,0,0,1,133,25.37a9.35,9.35,0,0,1-1.59-1.13,9,9,0,0,1-3.07-6.73,9.21,9.21,0,0,1,9.31-9.08,9.43,9.43,0,0,1,7.12,3.24A10,10,0,0,1,145.79,13.2Z"/></g></g></svg>