<svg width="60" height="533" viewBox="0 0 60 533" fill="none" xmlns="http://www.w3.org/2000/svg">
<path d="M36.6189 413.334L30.8288 404.99C29.5769 403.225 29.2639 400.978 30.9853 400.818V400.016H23.3174L36.7754 419.271V413.334H36.6189Z" fill="#777876"/>
<path d="M51.1715 442.539C51.1715 443.983 52.5799 444.946 52.5799 444.946V448.315H40.5303L40.9997 449.118C41.9387 450.401 40.8433 450.883 40.8433 450.883V451.685H56.4921V450.883C56.4921 450.883 55.0837 450.08 55.0837 448.476V403.546C55.0837 402.102 56.4921 401.139 56.4921 401.139V400.336H51.015L51.1715 442.539Z" fill="#777876"/>
<path d="M20.9697 448.315V425.85L17.0575 420.074V442.539C17.0575 443.983 18.4659 444.946 18.4659 444.946V448.315H9.54609V448.476C9.54609 449.92 8.1377 450.883 8.1377 450.883V451.685H22.3781V450.883C22.3781 450.722 20.9697 449.76 20.9697 448.315Z" fill="#777876"/>
<path d="M27.3858 506.564L28.7942 502.392L25.9774 493.727L22.2217 505.922L25.9774 507.045L27.3858 506.564Z" fill="#777876"/>
<path d="M56.491 529.189L53.5177 519.562L50.075 508.49L42.407 484.42C41.6246 482.013 43.6589 481.692 43.6589 481.692V480.89H39.7467H39.5902H37.3994L50.075 520.845L50.7009 522.771C51.1704 524.376 53.3612 525.017 53.8307 525.017H53.9872V525.82V528.708H43.6589L43.8154 529.029C44.1284 530.152 43.8154 531.115 42.72 531.115V531.917H46.1628H53.2047H55.7085H59.3078V531.115C59.3078 531.596 57.1169 531.115 56.491 529.189Z" fill="#777876"/>
<path d="M25.9775 522.45L17.6836 520.043L16.4317 523.734C16.2752 524.536 16.4317 525.178 17.0577 525.178V526.782V529.189H8.29433V529.35C7.66837 531.275 5.47754 531.757 5.47754 531.757V532.559H7.3554H9.85921H16.9012H21.2829V531.757C20.1874 531.757 20.0309 530.794 20.1874 529.671L22.2218 523.092L31.6111 525.82L35.8363 524.696L34.4279 520.203L25.9775 522.45Z" fill="#777876"/>
<path d="M28.1684 331.176C31.4547 330.053 37.7142 329.893 43.8172 331.979C39.592 329.251 33.9585 327.486 28.6379 327.486C26.447 327.486 24.5692 327.806 23.1608 328.288C17.6837 330.053 13.7715 335.348 13.7715 340.965C13.7715 345.137 15.8058 348.988 19.0921 351.555C18.3096 349.63 17.6837 347.704 17.6837 345.458C17.6837 338.718 22.2219 333.102 28.1684 331.176Z" fill="#777876"/>
<path d="M53.8324 345.939C52.2675 347.544 49.9202 348.667 46.6339 349.469V366.799L45.0691 366.96L43.8171 367.12C40.5309 367.441 38.0271 367.923 35.9927 368.244C33.176 368.725 30.8286 369.206 26.9164 369.206C23.9431 369.206 20.9699 368.725 18.3096 367.762C22.3783 370.49 27.2294 372.095 32.55 372.095C36.3057 372.095 38.653 371.613 41.3133 371.132C43.5042 370.651 45.8515 370.33 49.2942 370.009C49.7637 370.009 50.2332 370.009 50.7026 369.848V352.839C53.5194 352.197 56.6492 351.234 58.3706 349.469C59.7789 347.865 58.3706 344.816 58.3706 344.816C56.8057 345.618 55.2408 345.939 53.8324 345.939Z" fill="#777876"/>
<path d="M30.8265 352.518C31.1395 352.358 31.4525 352.197 31.7654 352.037V348.025C31.4525 348.025 31.296 348.025 30.983 348.025C30.5135 348.025 30.0441 348.025 29.4181 348.185C28.4792 348.988 27.6967 349.951 26.7578 350.913C26.7578 350.913 28.7922 353.32 30.8265 352.518Z" fill="#777876"/>
<path d="M46.3206 332.941C48.0419 333.744 49.7633 334.706 51.3282 335.83L52.1106 335.669L49.2938 321.067C48.1984 320.907 47.103 320.907 46.1641 320.746L48.3549 332.3L46.3206 332.941Z" fill="#777876"/>
<path d="M19.0921 115.993C18.3096 114.068 17.8402 111.982 17.8402 109.896C17.8402 101.712 24.5692 94.9725 32.7066 94.9725C33.802 94.9725 34.7409 95.133 35.6798 95.2935C33.3325 93.3679 30.3592 92.0842 27.073 92.0842C19.718 92.0842 13.7715 98.0213 13.7715 105.403C13.7715 109.735 15.8058 113.586 19.0921 115.993Z" fill="#777876"/>
<path d="M50.8579 90.8004C53.3617 95.133 54.9266 100.107 54.9266 105.403C54.9266 120.968 42.4075 133.484 27.0717 133.484C24.0984 133.484 21.1251 133.003 18.4648 132.04C22.5335 134.768 27.3847 136.372 32.7053 136.372C47.1022 136.372 58.9953 124.498 58.9953 109.896C58.8388 102.354 55.709 95.6144 50.8579 90.8004Z" fill="#777876"/>
<path d="M50.8579 246.291C53.3617 250.623 54.9266 255.597 54.9266 260.893C54.9266 276.458 42.4075 288.974 27.0717 288.974C24.0984 288.974 21.1251 288.493 18.4648 287.53C22.5335 290.258 27.3847 291.862 32.7053 291.862C47.1022 291.862 58.9953 279.988 58.9953 265.386C58.8388 257.844 55.709 251.104 50.8579 246.291Z" fill="#777876"/>
<path d="M19.0921 271.483C18.3096 269.558 17.8402 267.632 17.8402 265.386C17.8402 257.202 24.5692 250.463 32.7066 250.463C33.802 250.463 34.7409 250.623 35.6798 250.784C33.3325 248.858 30.3592 247.574 27.073 247.574C19.718 247.574 13.7715 253.511 13.7715 260.893C13.7715 265.225 15.8058 269.077 19.0921 271.483Z" fill="#777876"/>
<path d="M31.61 17.6286C34.8963 16.5054 41.1558 16.3449 47.1024 18.4309C42.8772 15.7031 37.2436 13.9379 31.923 13.9379C29.7322 13.9379 27.8543 14.2589 26.4459 14.7403C20.9688 16.5054 17.0566 21.8007 17.0566 27.417C17.0566 31.589 19.091 35.4402 22.3772 38.0076C21.5948 36.0821 20.9688 34.1565 20.9688 31.91C21.1253 25.3309 25.6635 19.5542 31.61 17.6286Z" fill="#777876"/>
<path d="M50.2311 44.2657L48.3532 53.2518L47.1013 53.4122C43.8151 53.7332 41.3113 54.2146 39.2769 54.5355C36.4601 55.0169 34.1128 55.4983 30.2006 55.4983C27.2273 55.4983 24.254 55.0169 21.5938 54.0541C25.6624 56.782 30.5136 58.3866 35.8342 58.3866C39.5899 58.3866 41.9372 57.9052 44.5975 57.4238C46.7884 56.9424 49.1357 56.6215 52.5784 56.3006L55.3952 41.6983L54.6128 41.5378C53.3609 42.5006 51.796 43.4634 50.2311 44.2657Z" fill="#777876"/>
<path d="M49.4502 7.19844L51.641 18.7519L49.6067 19.3938C51.3281 20.1961 53.0494 21.1589 54.6143 22.2821L55.3967 22.1217L52.58 7.51937C51.4845 7.51937 50.3891 7.35891 49.4502 7.19844Z" fill="#777876"/>
<path d="M50.2332 174.242C49.2943 173.44 46.7905 171.995 41.9393 171.835H34.2714V205.853C34.2714 207.298 35.6798 208.26 35.6798 208.26V211.63H26.76C26.6035 212.914 25.3516 213.716 25.3516 213.716V214.519H25.9775H32.55H39.1225H39.7485V213.716C39.7485 213.716 38.3401 212.914 38.3401 211.309V174.884H47.4164C48.8248 174.884 49.9202 175.044 51.0156 175.205C50.8591 175.044 50.7027 174.884 50.5462 174.723C50.5462 174.402 50.3897 174.402 50.2332 174.242Z" fill="#777876"/>
<path d="M52.2686 163.009L54.4594 174.723L52.5815 175.365C56.1808 176.328 57.4327 178.093 57.4327 178.093L58.0586 177.933L55.2418 163.009H52.2686Z" fill="#777876"/>
<path d="M8.13839 172.316L7.04297 177.933L7.66892 178.093C7.66892 178.093 10.1727 174.723 17.6842 174.563H19.7185V171.675C17.0582 171.675 12.2071 171.675 12.0506 171.675C10.4857 171.835 9.2338 171.995 8.13839 172.316Z" fill="#777876"/>
<path d="M35.3655 445.748V446.55H51.0143V445.748C51.0143 445.748 49.6059 444.946 49.6059 443.341V398.411C49.6059 396.967 51.0143 396.004 51.0143 396.004V395.202H36.7739V396.004C36.7739 396.004 38.1822 396.967 38.1822 398.411V424.567L21.2815 400.176C20.0296 398.411 19.7166 396.164 21.438 396.004V395.202H2.50293V396.004C2.50293 396.004 3.91132 396.967 3.91132 398.411V443.341C3.91132 444.785 2.50293 445.748 2.50293 445.748V446.55H16.7434V445.748C16.7434 445.748 15.335 444.946 15.335 443.341V414.939L35.5219 443.983C36.4609 445.427 35.3655 445.748 35.3655 445.748Z" fill="#FDF9E1"/>
<path d="M50.3892 527.424H52.2671V526.622C52.2671 526.622 50.0762 526.141 49.4503 524.215L46.477 514.587L43.0343 503.515L35.3663 479.445C34.5839 477.199 36.6182 476.718 36.6182 476.718V475.915H34.2709H34.1144H18.1526H17.9961H15.6488V476.718C15.6488 476.718 17.6832 477.199 16.9007 479.445L9.23281 503.515L5.79006 514.587L2.81679 524.055C2.19084 525.98 0 526.462 0 526.462V527.264H1.87786H4.38167H11.4236H15.8053V526.462C14.7099 526.462 14.5534 525.499 14.7099 524.376L16.7442 517.796L26.1335 520.524L35.5228 517.796L37.5572 524.376C37.8702 525.499 37.5572 526.462 36.4618 526.462V527.264H40.8434H47.8854H50.3892V527.424ZM25.977 488.592L31.7671 507.045L25.977 508.81L20.187 507.045L25.977 488.592Z" fill="#FDF9E1"/>
<path d="M53.2058 105.403C53.2058 90.8005 41.4692 78.9261 26.9158 78.9261C12.5188 78.9261 0.782227 90.8005 0.782227 105.403C0.782227 120.005 12.5188 131.879 27.0722 131.879C41.4692 131.879 53.2058 120.005 53.2058 105.403ZM27.0722 90.64C35.2096 90.64 41.9386 97.3795 41.9386 105.563C41.9386 113.747 35.2096 120.486 27.0722 120.486C18.9349 120.486 12.2059 113.747 12.2059 105.563C12.2059 97.219 18.7784 90.64 27.0722 90.64Z" fill="#FDF9E1"/>
<path d="M27.0723 158.516H4.22499L1.4082 173.44L2.03416 173.6C2.03416 173.6 4.53797 170.23 12.0494 170.07H21.2822V206.495C21.2822 207.94 19.8738 208.902 19.8738 208.902V209.705H20.4998H27.0723H33.6448H34.2707V208.902C34.2707 208.902 32.8623 208.1 32.8623 206.495V170.07H41.9387C49.4501 170.23 52.1104 173.6 52.1104 173.6L52.7363 173.44L49.9196 158.516H27.0723Z" fill="#FDF9E1"/>
<path d="M39.1215 52.9308C41.3123 52.4494 43.6596 52.1285 47.1024 51.8076L49.9192 37.2053L49.1367 37.0448C41.3123 42.982 30.6711 43.4634 25.9765 41.6983C20.1864 39.7727 15.4918 34.1565 15.4918 27.417C15.4918 20.8379 20.1864 15.0612 25.9765 13.1356C30.6711 11.3705 41.4688 12.0124 49.1367 17.7891L49.9192 17.6286L47.1024 3.02638C43.6596 2.70545 41.3123 2.22405 39.1215 1.90312C36.3047 1.42173 33.9574 0.940338 30.3581 0.940338C15.9612 0.940338 4.22461 12.8147 4.22461 27.417C4.22461 42.0192 15.9612 53.8936 30.3581 53.8936C33.9574 53.8936 36.3047 53.5727 39.1215 52.9308Z" fill="#FDF9E1"/>
<path d="M35.6789 366.478C37.8697 365.997 40.217 365.676 43.6598 365.355C44.1292 365.355 44.5987 365.355 45.0682 365.195V348.185C47.8849 347.544 51.0147 346.581 52.7361 344.816C54.1445 343.211 52.7361 340.162 52.7361 340.162C47.7285 343.692 42.5643 339.199 37.0873 338.879C33.9575 338.718 26.6025 339.841 21.2819 346.581C21.2819 346.581 23.3163 348.988 25.3506 348.025C29.5758 346.099 31.6102 346.26 33.488 346.902V355.567C29.1064 356.369 25.1942 356.048 22.6903 355.085C16.9003 353.16 12.2056 347.544 12.2056 340.804C12.2056 334.225 16.9003 328.448 22.6903 326.523C27.385 324.758 38.1827 325.4 45.8506 331.176L46.633 331.016L43.8162 316.414C40.3735 316.093 38.0262 315.611 35.8354 315.29C33.175 314.809 30.8277 314.327 27.072 314.327C12.6751 314.327 0.938477 326.202 0.938477 340.804C0.938477 355.406 12.6751 367.281 27.072 367.281C30.5147 367.441 32.8621 366.96 35.6789 366.478Z" fill="#FDF9E1"/>
<path d="M53.207 260.893C53.207 246.291 41.4704 234.416 26.917 234.416C12.5201 234.416 0.626953 246.291 0.626953 260.893C0.626953 275.495 12.3636 287.369 26.917 287.369C41.4704 287.369 53.207 275.495 53.207 260.893ZM27.0735 245.97C35.2108 245.97 41.9398 252.709 41.9398 260.893C41.9398 269.076 35.2108 275.816 27.0735 275.816C18.9361 275.816 12.2071 269.076 12.2071 260.893C12.2071 252.709 18.7796 245.97 27.0735 245.97Z" fill="#FDF9E1"/>
<path d="M35.3655 445.748V446.55H51.0143V445.748C51.0143 445.748 49.6059 444.946 49.6059 443.341V398.411C49.6059 396.967 51.0143 396.004 51.0143 396.004V395.202H36.7739V396.004C36.7739 396.004 38.1822 396.967 38.1822 398.411V424.567L21.2815 400.176C20.0296 398.411 19.7166 396.164 21.438 396.004V395.202H2.50293V396.004C2.50293 396.004 3.91132 396.967 3.91132 398.411V443.341C3.91132 444.785 2.50293 445.748 2.50293 445.748V446.55H16.7434V445.748C16.7434 445.748 15.335 444.946 15.335 443.341V414.939L35.5219 443.983C36.4609 445.427 35.3655 445.748 35.3655 445.748Z" fill="#134729"/>
<path d="M50.3892 527.424H52.2671V526.622C52.2671 526.622 50.0762 526.141 49.4503 524.215L46.477 514.587L43.0343 503.515L35.3663 479.445C34.5839 477.199 36.6182 476.718 36.6182 476.718V475.915H34.2709H34.1144H18.1526H17.9961H15.6488V476.718C15.6488 476.718 17.6832 477.199 16.9007 479.445L9.23281 503.515L5.79006 514.587L2.81679 524.055C2.19084 525.98 0 526.462 0 526.462V527.264H1.87786H4.38167H11.4236H15.8053V526.462C14.7099 526.462 14.5534 525.499 14.7099 524.376L16.7442 517.796L26.1335 520.524L35.5228 517.796L37.5572 524.376C37.8702 525.499 37.5572 526.462 36.4618 526.462V527.264H40.8434H47.8854H50.3892V527.424ZM25.977 488.592L31.7671 507.045L25.977 508.81L20.187 507.045L25.977 488.592Z" fill="#134729"/>
<path d="M53.2058 105.403C53.2058 90.8005 41.4692 78.9261 26.9158 78.9261C12.5188 78.9261 0.782227 90.8005 0.782227 105.403C0.782227 120.005 12.5188 131.879 27.0722 131.879C41.4692 131.879 53.2058 120.005 53.2058 105.403ZM27.0722 90.64C35.2096 90.64 41.9386 97.3795 41.9386 105.563C41.9386 113.747 35.2096 120.486 27.0722 120.486C18.9349 120.486 12.2059 113.747 12.2059 105.563C12.2059 97.219 18.7784 90.64 27.0722 90.64Z" fill="#134729"/>
<path d="M27.0723 158.516H4.22499L1.4082 173.44L2.03416 173.6C2.03416 173.6 4.53797 170.23 12.0494 170.07H21.2822V206.495C21.2822 207.94 19.8738 208.902 19.8738 208.902V209.705H20.4998H27.0723H33.6448H34.2707V208.902C34.2707 208.902 32.8623 208.1 32.8623 206.495V170.07H41.9387C49.4501 170.23 52.1104 173.6 52.1104 173.6L52.7363 173.44L49.9196 158.516H27.0723Z" fill="#134729"/>
<path d="M39.1215 52.9308C41.3123 52.4494 43.6596 52.1285 47.1024 51.8076L49.9192 37.2053L49.1367 37.0448C41.3123 42.982 30.6711 43.4634 25.9765 41.6983C20.1864 39.7727 15.4918 34.1565 15.4918 27.417C15.4918 20.8379 20.1864 15.0612 25.9765 13.1356C30.6711 11.3705 41.4688 12.0124 49.1367 17.7891L49.9192 17.6286L47.1024 3.02638C43.6596 2.70545 41.3123 2.22405 39.1215 1.90312C36.3047 1.42173 33.9574 0.940338 30.3581 0.940338C15.9612 0.940338 4.22461 12.8147 4.22461 27.417C4.22461 42.0192 15.9612 53.8936 30.3581 53.8936C33.9574 53.8936 36.3047 53.5727 39.1215 52.9308Z" fill="#134729"/>
<path d="M35.6789 366.478C37.8697 365.997 40.217 365.676 43.6598 365.355C44.1292 365.355 44.5987 365.355 45.0682 365.195V348.185C47.8849 347.544 51.0147 346.581 52.7361 344.816C54.1445 343.211 52.7361 340.162 52.7361 340.162C47.7285 343.692 42.5643 339.199 37.0873 338.879C33.9575 338.718 26.6025 339.841 21.2819 346.581C21.2819 346.581 23.3163 348.988 25.3506 348.025C29.5758 346.099 31.6102 346.26 33.488 346.902V355.567C29.1064 356.369 25.1942 356.048 22.6903 355.085C16.9003 353.16 12.2056 347.544 12.2056 340.804C12.2056 334.225 16.9003 328.448 22.6903 326.523C27.385 324.758 38.1827 325.4 45.8506 331.176L46.633 331.016L43.8162 316.414C40.3735 316.093 38.0262 315.611 35.8354 315.29C33.175 314.809 30.8277 314.327 27.072 314.327C12.6751 314.327 0.938477 326.202 0.938477 340.804C0.938477 355.406 12.6751 367.281 27.072 367.281C30.5147 367.441 32.8621 366.96 35.6789 366.478Z" fill="#134729"/>
<path d="M53.207 260.893C53.207 246.291 41.4704 234.416 26.917 234.416C12.5201 234.416 0.626953 246.291 0.626953 260.893C0.626953 275.495 12.3636 287.369 26.917 287.369C41.4704 287.369 53.207 275.495 53.207 260.893ZM27.0735 245.97C35.2108 245.97 41.9398 252.709 41.9398 260.893C41.9398 269.076 35.2108 275.816 27.0735 275.816C18.9361 275.816 12.2071 269.076 12.2071 260.893C12.2071 252.709 18.7796 245.97 27.0735 245.97Z" fill="#134729"/>
</svg>
