<svg width="32" height="31" viewBox="0 0 32 31" fill="none" xmlns="http://www.w3.org/2000/svg">
<path d="M28.8462 21.7648C28.8462 25.1434 26.0788 27.8808 22.6633 27.8808H9.99644C6.58091 27.8808 3.81352 25.1434 3.81352 21.7648V9.23517C3.81352 5.85662 6.58091 3.11921 9.99644 3.11921H22.6633C26.0788 3.11921 28.8462 5.85662 28.8462 9.23517V21.7648ZM22.6633 0H9.99644C4.84765 0 0.660156 4.14214 0.660156 9.23517V21.7648C0.660156 26.8579 4.84765 31 9.99644 31H22.6633C27.8121 31 31.9996 26.8579 31.9996 21.7648V9.23517C31.9996 4.14214 27.8121 0 22.6633 0Z" fill="#134729"/>
<path d="M16.3301 20.3991C13.5943 20.3991 11.378 18.2067 11.378 15.5004C11.378 12.7941 13.5943 10.6017 16.3301 10.6017C19.066 10.6017 21.2823 12.7941 21.2823 15.5004C21.2823 18.2067 19.066 20.3991 16.3301 20.3991ZM16.3301 7.48242C11.861 7.48242 8.22461 11.0796 8.22461 15.5004C8.22461 19.9212 11.861 23.5184 16.3301 23.5184C20.7992 23.5184 24.4357 19.9212 24.4357 15.5004C24.4357 11.0796 20.7992 7.48242 16.3301 7.48242Z" fill="#134729"/>
<path d="M24.7016 9.44772C25.765 9.3099 26.5142 8.34536 26.3748 7.29338C26.2355 6.24139 25.2605 5.50032 24.197 5.63814C23.1336 5.77597 22.3844 6.7405 22.5238 7.79248C22.6631 8.84447 23.6381 9.58555 24.7016 9.44772Z" fill="#134729"/>
</svg>
