<svg width="31" height="29" viewBox="0 0 31 29" fill="none" xmlns="http://www.w3.org/2000/svg">
<path fill-rule="evenodd" clip-rule="evenodd" d="M14.2302 27.5406C14.5287 27.8277 15.0035 27.8184 15.2906 27.5198C15.5777 27.2213 15.5684 26.7465 15.2698 26.4594L3.61208 15.25L28.75 15.25C29.1642 15.25 29.5 14.9142 29.5 14.5C29.5 14.0858 29.1642 13.75 28.75 13.75L3.61208 13.75L15.2698 2.54062C15.5684 2.25353 15.5777 1.77875 15.2906 1.48017C15.0035 1.18159 14.5287 1.17228 14.2302 1.45937L1.23017 13.9594C1.08311 14.1008 0.999999 14.296 0.999999 14.5C0.999999 14.704 1.08311 14.8992 1.23017 15.0406L14.2302 27.5406Z" fill="#FDFBF7"/>
<path fill-rule="evenodd" clip-rule="evenodd" d="M15.2698 2.54062C15.5684 2.25353 15.5777 1.77874 15.2906 1.48017C15.0035 1.18159 14.5287 1.17228 14.2302 1.45937L1.23017 13.9594C1.08311 14.1008 0.999999 14.296 0.999999 14.5C0.999999 14.704 1.08311 14.8992 1.23017 15.0406L14.2302 27.5406C14.5287 27.8277 15.0035 27.8184 15.2906 27.5198C15.5777 27.2212 15.5684 26.7465 15.2698 26.4594L3.61208 15.25L28.75 15.25C29.1642 15.25 29.5 14.9142 29.5 14.5C29.5 14.0858 29.1642 13.75 28.75 13.75L3.61208 13.75L15.2698 2.54062ZM6.09486 12.75L15.9629 3.26145C16.6596 2.59157 16.6813 1.48374 16.0115 0.787057C15.3416 0.0903727 14.2337 0.0686498 13.5371 0.738539L0.537059 13.2385C0.193921 13.5685 -6.19958e-07 14.024 -6.61574e-07 14.5C-7.0319e-07 14.976 0.193921 15.4315 0.537063 15.7615L13.5371 28.2615C14.2337 28.9313 15.3416 28.9096 16.0115 28.2129C16.6813 27.5163 16.6596 26.4084 15.9629 25.7385L6.09486 16.25L28.75 16.25C29.7165 16.25 30.5 15.4665 30.5 14.5C30.5 13.5335 29.7165 12.75 28.75 12.75L6.09486 12.75Z" fill="#134729"/>
</svg>
