<svg xmlns="http://www.w3.org/2000/svg" viewBox="0 0 1923.68 1377.51"><defs><style>.cls-1,.cls-20{fill:none;}.cls-1{stroke:#000;stroke-miterlimit:10;stroke-width:0.75px;opacity:0.5;}.cls-2,.cls-6,.cls-8{font-size:7.99px;}.cls-11,.cls-13,.cls-16,.cls-2,.cls-6,.cls-8{fill:#a3a3a3;}.cls-11,.cls-13,.cls-16,.cls-19,.cls-2,.cls-6,.cls-8{font-family:CenturyGothicPro-Bold, Century Gothic Pro;font-weight:700;}.cls-2{letter-spacing:0.2em;}.cls-3{letter-spacing:0.25em;}.cls-4,.cls-8{letter-spacing:0.3em;}.cls-5{letter-spacing:0.17em;}.cls-6{letter-spacing:0.2em;}.cls-7{letter-spacing:0.26em;}.cls-9{letter-spacing:0.21em;}.cls-10{letter-spacing:0.16em;}.cls-11,.cls-13{font-size:8px;}.cls-11{letter-spacing:0.21em;}.cls-12{letter-spacing:0.3em;}.cls-13{letter-spacing:0.3em;}.cls-14{letter-spacing:0.16em;}.cls-15{letter-spacing:0.28em;}.cls-16{font-size:7.99px;letter-spacing:0.3em;}.cls-17{letter-spacing:0.17em;}.cls-18{letter-spacing:0.23em;}.cls-19{font-size:12px;fill:#134729;letter-spacing:0.3em;}</style></defs><title>Map Base 3_1</title><g id="Layer_2" data-name="Layer 2"><g id="Layer_1-2" data-name="Layer 1"><polygon class="cls-1" points="849.19 759.13 719.06 780.43 761.42 1040.66 888.65 1021.45 849.19 759.13"/><text class="cls-2" transform="matrix(0.99, -0.15, 0.15, 0.99, 821.17, 463.24)">P<tspan class="cls-3" x="6.08" y="0">A</tspan><tspan class="cls-4" x="14.03" y="0">CIFIC </tspan><tspan class="cls-5" x="51.44" y="0">A</tspan><tspan class="cls-4" x="58.74" y="0">VENUE</tspan></text><text class="cls-2" transform="matrix(0.99, -0.15, 0.15, 0.99, 1487.95, 356.06)">P<tspan class="cls-3" x="6.08" y="0">A</tspan><tspan class="cls-4" x="14.03" y="0">CIFIC </tspan><tspan class="cls-5" x="51.44" y="0">A</tspan><tspan class="cls-4" x="58.74" y="0">VENUE</tspan></text><text class="cls-6" transform="matrix(0.99, -0.15, 0.15, 0.99, 409.07, 528.73)">P<tspan class="cls-7" x="6.07" y="0">A</tspan><tspan class="cls-4" x="14.03" y="0">CIFIC </tspan><tspan class="cls-5" x="51.44" y="0">A</tspan><tspan class="cls-4" x="58.74" y="0">VENUE</tspan></text><text class="cls-8" transform="matrix(0.99, -0.15, 0.15, 0.99, 789.26, 162.85)">BR<tspan class="cls-7" x="14.07" y="0">O</tspan><tspan x="22.82" y="0">AD</tspan><tspan class="cls-9" x="39.13" y="0">W</tspan><tspan class="cls-10" x="47.97" y="0">A</tspan><tspan x="55.17" y="0">Y</tspan></text><text class="cls-8" transform="matrix(0.99, -0.15, 0.15, 0.99, 52.77, 282.63)">BR<tspan class="cls-7" x="14.07" y="0">O</tspan><tspan x="22.82" y="0">AD</tspan><tspan class="cls-9" x="39.13" y="0">W</tspan><tspan class="cls-10" x="47.97" y="0">A</tspan><tspan x="55.17" y="0">Y</tspan></text><text class="cls-8" transform="matrix(0.99, -0.15, 0.15, 0.99, 1457.4, 56.45)">BR<tspan class="cls-7" x="14.07" y="0">O</tspan><tspan x="22.82" y="0">AD</tspan><tspan class="cls-9" x="39.13" y="0">W</tspan><tspan class="cls-10" x="47.97" y="0">A</tspan><tspan x="55.17" y="0">Y</tspan></text><text class="cls-8" transform="matrix(0.99, -0.15, 0.15, 0.99, 875.35, 745.88)">J<tspan class="cls-7" x="6.24" y="0">A</tspan><tspan x="14.19" y="0">CKSON STREET</tspan></text><text class="cls-8" transform="matrix(0.99, -0.15, 0.15, 0.99, 795.96, 672.38)">GOLD STREET</text><text class="cls-8" transform="matrix(0.99, -0.15, 0.15, 0.99, 51.65, 874.59)">J<tspan class="cls-7" x="6.24" y="0">A</tspan><tspan x="14.19" y="0">CKSON STREET</tspan></text><text class="cls-8" transform="matrix(0.99, -0.15, 0.15, 0.99, 1226.12, 685.98)">J<tspan class="cls-7" x="6.23" y="0">A</tspan><tspan x="14.19" y="0">CKSON STREET</tspan></text><text class="cls-11" transform="matrix(0.99, -0.15, 0.15, 0.99, 848.5, 1042.56)">W<tspan class="cls-12" x="8.84" y="0">ASHINGTON STREET</tspan></text><text class="cls-11" transform="matrix(0.99, -0.15, 0.15, 0.99, 447.28, 1107.2)">W<tspan class="cls-12" x="8.84" y="0">ASHINGTON STREET</tspan></text><text class="cls-13" transform="matrix(0.99, -0.15, 0.15, 0.99, 514.1, 1250.85)">MERCHANT STREET</text><text class="cls-13" transform="matrix(0.99, -0.15, 0.15, 0.99, 551.61, 1370.05)">CL<tspan class="cls-14" x="14.55" y="0">A</tspan><tspan x="21.76" y="0">Y STREET</tspan></text><text class="cls-11" transform="matrix(0.99, -0.15, 0.15, 0.99, 1720.65, 906.51)">W<tspan class="cls-12" x="8.84" y="0">ASHINGTON STREET</tspan></text><text class="cls-11" transform="matrix(0.99, -0.15, 0.15, 0.99, 1265.16, 979.55)">W<tspan class="cls-12" x="8.84" y="0">ASHINGTON STREET</tspan></text><text class="cls-8" transform="matrix(0.15, 0.99, -0.99, 0.16, 344.61, 1178.15)">KEARNY STREET</text><text class="cls-8" transform="matrix(0.15, 0.99, -0.99, 0.16, 267.48, 691.22)">KEARNY STREET</text><text class="cls-8" transform="matrix(0.15, 0.99, -0.99, 0.16, 692.86, 685.84)">MONTGOME<tspan class="cls-15" x="67.14" y="0">R</tspan><tspan x="74.02" y="0">Y STREET</tspan></text><text class="cls-8" transform="matrix(0.15, 0.99, -0.99, 0.16, 630.73, 283.81)">MONTGOME<tspan class="cls-15" x="67.14" y="0">R</tspan><tspan x="74.02" y="0">Y STREET</tspan></text><text class="cls-8" transform="matrix(0.15, 0.99, -0.99, 0.16, 833.19, 259.23)">OSGOOD PL<tspan class="cls-3" x="68.42" y="0">A</tspan><tspan x="76.38" y="0">CE</tspan></text><text class="cls-16" transform="matrix(0.74, 0.67, -0.67, 0.74, 598.86, 916.98)">COLUMBUS <tspan class="cls-17" x="66.47" y="0">A</tspan><tspan x="73.76" y="0">VE</tspan></text><text class="cls-16" transform="matrix(0.74, 0.67, -0.67, 0.74, 230.46, 591.33)">COLUMBUS <tspan class="cls-17" x="66.47" y="0">A</tspan><tspan x="73.76" y="0">VE</tspan></text><text class="cls-8" transform="matrix(0.15, 0.99, -0.99, 0.16, 770.46, 1148.99)">MONTGOME<tspan class="cls-15" x="67.14" y="0">R</tspan><tspan x="74.02" y="0">Y STREET</tspan></text><text class="cls-8" transform="matrix(0.15, 0.99, -0.99, 0.16, 1109.48, 626.18)">SANSOME STREET</text><text class="cls-8" transform="matrix(0.15, 0.99, -0.99, 0.16, 968.05, 647.56)">BALANCE PL</text><text class="cls-8" transform="matrix(0.15, 0.99, -0.99, 0.16, 1370.15, 333.35)">B<tspan class="cls-18" x="7.03" y="0">A</tspan><tspan x="14.76" y="0">TTE</tspan><tspan class="cls-15" x="32.83" y="0">R</tspan><tspan x="39.7" y="0">Y STREET</tspan></text><text class="cls-8" transform="matrix(0.15, 0.99, -0.99, 0.16, 1441.67, 764.97)">B<tspan class="cls-18" x="7.03" y="0">A</tspan><tspan x="14.76" y="0">TTE</tspan><tspan class="cls-15" x="32.83" y="0">R</tspan><tspan x="39.7" y="0">Y STREET</tspan></text><text class="cls-8" transform="matrix(0.15, 0.99, -0.99, 0.16, 1172.9, 1015.96)">SANSOME STREET</text><text class="cls-8" transform="matrix(0.15, 0.99, -0.99, 0.16, 1033.24, 140.65)">SANSOME STREET</text><text class="cls-19" transform="matrix(0.99, -0.14, 0.14, 0.99, 849.37, 1198.74)">TRANSAMERICA<tspan x="25.44" y="14.4">BUILDING</tspan></text><path class="cls-20" d="M795.7,2.44A4.42,4.42,0,0,0,798.91.38h-8.39A5.2,5.2,0,0,0,795.7,2.44Z"/><path class="cls-20" d="M1923.31,1152.56V1138.5l-64.39,9.46L1681.7,1174l-151.39,35.7-42-254.36,338.22-55,96.8-13.83V859.92l-283,45.44-157.47,24-44-275.54,275-45.5-8.18,17.89,13.3,95.09,53.16-9.2-14.82-94.58-18.92-13.8,184.81-29.89V561.16l-195,33.4-91-557.68L1870.51.38H1702.13l-69.89,10.91L1630.41.38h-11.84l2.19,13.4-278.38,45L1333.08.38h-26L1317,60.56l-273.11,45.11L1027.08.38H1001l17.38,110.88-311,50.09L688.78,42.18l-.35-22.86s1.22-6.24-4.67-6.24-5.67,5.69-5.67,5.69V42.32l19.7,120.15L621.86,174,594.67.38H582.49l27.93,176L214.78,239.87,201.57,145l125.55-19.87s7.12,0,6.14-6.13-7.61-3.43-7.61-3.43L200.83,135,180.38.38H168.32l5.05,34.3L.38,61.39V73.22L174.84,45.71l28.69,195.2L19.61,270.53.38,150.79v76.86L7.6,272.54.38,273.75V301l195.74-30.49V294L235,546.41l-29.5,4.43L.38,373.57V406.9L173.64,556.64.38,584.12v12.41L185,566.85l60.48,53.44,32.84,204.38L.38,867.6v25.57l13.15-2,44.83,264.13-58,9.48v12.72l105.2-15.07,33.08,214.69H152.3l-33.72-217.54,208.11-31.36,39.12,248.9h23.9l-15.85-100.61L569.24,1247,769,1215.44l15.15,93.79,2.52,14.7-333.72,53.2h79.31l256.64-41.67,6.76,41.67h26.26l-7.41-46.05,175.24-28,12.15,74h11.84l-12.36-75.71,50.37-7.41,151-13.82,16.15,96.94h26.29l-16.49-100.65,251.73-41.11,27.3-7.41,22.55,149.17h25.24l-24.14-155.75,156-37,119.5-16.2,33.71,208.91h11.94l-34-208.91ZM1458.78,934.75l-132,20.63L1283,687l132-20.71ZM717.83,979.3C706,985.24,700,983.76,700,983.76L571.28,872.41l-63.21-54.87,196-34.66,29.4,181.58S729.71,973.37,717.83,979.3ZM737.12,988l4.94,33.74-25.45-22.88S729,997.3,737.12,988Zm344.22-266.58,30.87-4.78,8.63,50.64s-17.53,2.87-25.54,4.24-7.56-4.12-7.56-4.12Zm-94.13-11-10.32-64.3L1099,626.74l10.24,65.42Zm125.56-157.9L1100,477l98.73-15.93L1189.43,407l177.39-29.17,43.86,263L1133.89,687Zm80.54-95-94.21,14.82-7.18-49.78,92.21-14.26Zm-97,157.24L703.73,677.92l-30.44-187.1,394.14-62.73ZM705.21,690.54l260-42.3L975.41,713,715.35,754.84Zm371.42,31.71,6.42,44.75s0,11,10.56,9.92,28.22-3.95,28.22-3.95l32.59,207.88-247.71,38.6L867.32,756.12Zm81.81,282.21,19.34,121.41-147,23.08-17.21-124.46Zm-19.07-293,133.69-22.11,43.69,267.38-135.59,19.12Zm608.33-87.27,12.78,79.24-33.74,5.62L1716,628.79l10.73-18.4ZM1716,592.49,1435.86,639l-44-264.29,282.7-45ZM1625.52,39.36,1672,316.44l-282.19,45L1346.4,83.84ZM1321.3,87.9l43.46,278.84-156.7,24.81L1090.41,410l-42.79-277.78Zm-298.8,48.27L1065,413.78,872.37,444.72l-46.26-276.8Zm-318.63,52,20.29,115s.63,6.89,5.43,6.45c5.43-.49,2.86-7.38,2.86-7.38L713,186.67l103.12-17,44.46,276.72L670.29,477.07,626.74,200.2ZM614.63,201.4l15.74,104.43-106,16.6-16.6-103.57ZM520.57,323.59l-19.89,2.47-7.78-52.91,18.63-2.62Zm-302.77,238,18.77-2.87,2.61,20.34ZM222.23,293V265.26l182.94-30.17L421,335.66s1.43,9.58,8.14,8.62,4.31-10,4.31-10L418.58,233.66l85.25-13.89L511,266.22l-21.55,3.83,8.62,60.35,22-2.88L523,343.8l4.79-.47-2.39-16.77,104.46-16.84,9.72,62,16.63,108-82.91,14.08L259.59,543.51Zm40.44,262.6L659.13,493l40,264.45L486.83,796.27,269.48,608.59Zm12.65,89L450.93,799.08,303.7,822ZM67.41,1155.31,23,889.29l260-38.81,41.83,265.64ZM309.57,846.87,473.65,822l260,229.74-382.43,58.4ZM644.4,1220.46l-65.57,9.87-205.72,32L353.44,1128l393-60.47,19.91,133.2Zm117-179.8L719.06,780.43l130.13-21.3,39.46,262.32Zm51.5,278.63-38.08-256.77,233.38-36.87,35.54,256.93ZM1050,1281.67l-17.85-126.05L1179,1133.08l20.68,135.68Zm135-281.08,278.45-40.75,19.41,114.89-278.7,45Zm290.29,222.65L1228.06,1265l-23-136.15,279.36-45.83L1505,1215.44Z"/><path class="cls-1" d="M860.58,446.38,816.12,169.66,713,186.67l19.45,115.54s2.57,6.89-2.86,7.38c-4.8.44-5.43-6.45-5.43-6.45l-20.29-115L626.74,200.2l43.55,276.87Z"/><polygon class="cls-1" points="1064.96 413.78 1022.5 136.17 826.11 167.91 872.37 444.73 1064.96 413.78"/><polygon class="cls-1" points="1208.06 391.55 1364.76 366.74 1321.3 87.9 1047.62 132.22 1090.41 410 1208.06 391.55"/><polygon class="cls-1" points="673.29 490.82 703.73 677.92 1096.27 614.68 1067.43 428.09 673.29 490.82"/><polygon class="cls-1" points="699.15 757.43 659.13 492.98 262.67 555.64 269.48 608.59 486.83 796.27 699.15 757.43"/><polygon class="cls-1" points="965.19 648.24 705.21 690.54 715.35 754.84 975.41 713 965.19 648.24"/><polygon class="cls-1" points="976.89 646.07 987.21 710.37 1109.26 692.16 1099.02 626.74 976.89 646.07"/><path class="cls-1" d="M508.07,817.54l63.21,54.87L700,983.76s5.93,1.48,17.81-4.46,15.59-14.84,15.59-14.84L704,782.88Z"/><path class="cls-1" d="M1154.42,980.85,1121.83,773s-17.71,2.9-28.22,3.95-10.56-9.92-10.56-9.92l-6.42-44.75L867.32,756.12l39.39,263.33Z"/><path class="cls-1" d="M1095.3,771.47c8-1.37,25.54-4.24,25.54-4.24l-8.63-50.64-30.87,4.78,6.4,46S1087.29,772.84,1095.3,771.47Z"/><path class="cls-1" d="M742.06,1021.69,737.12,988c-8.15,9.35-20.51,10.86-20.51,10.86Z"/><polygon class="cls-1" points="473.65 821.97 309.57 846.87 351.17 1110.11 733.6 1051.71 473.65 821.97"/><polygon class="cls-1" points="353.44 1127.99 373.11 1262.34 578.83 1230.33 644.4 1220.46 766.38 1200.72 746.47 1067.52 353.44 1127.99"/><path class="cls-1" d="M774.84,1062.52l38.08,256.77,230.84-36.71-35.54-256.93Zm141.85,76.73-7.39,12.83-7.39-12.83a8.5,8.5,0,1,1,15.89-4.2A8.41,8.41,0,0,1,916.69,1139.25Z"/><polygon class="cls-1" points="1177.78 1125.87 1158.44 1004.46 1013.58 1024.49 1030.79 1148.95 1177.78 1125.87"/><polygon class="cls-1" points="1032.18 1155.62 1050.03 1281.67 1199.7 1268.76 1179.02 1133.08 1032.18 1155.62"/><polygon class="cls-1" points="1091.92 422.48 1099.1 472.26 1193.31 457.44 1184.13 408.23 1091.92 422.48"/><polygon class="cls-1" points="1316.75 956.73 1273.06 689.35 1139.37 711.46 1181.16 975.85 1316.75 956.73"/><polygon class="cls-1" points="1463.47 959.84 1185.02 1000.59 1204.18 1119.76 1482.88 1074.73 1463.47 959.84"/><polygon class="cls-1" points="784.11 1309.23 768.96 1215.44 569.24 1247.03 373.86 1276.52 389.71 1377.13 452.9 1377.13 786.63 1323.93 784.11 1309.23"/><path class="cls-1" d="M656.19,479.74l-16.63-108-9.72-62L525.38,326.56l2.39,16.77-4.79.47-2.87-16.28-22,2.88-8.62-60.35L511,266.22l-7.18-46.45-85.25,13.89,14.85,100.57s2.39,9.1-4.31,10-8.14-8.62-8.14-8.62L405.17,235.09,222.23,265.26V293l37.36,250.47,313.69-49.69Z"/><polygon class="cls-1" points="1410.68 640.78 1366.82 377.83 1189.43 407 1198.75 461.07 1100.02 477 1112.77 552.48 1133.89 686.95 1410.68 640.78"/><polygon class="cls-1" points="500.69 326.06 520.57 323.6 511.53 270.53 492.9 273.15 500.69 326.06"/><polygon class="cls-1" points="630.37 305.83 614.63 201.4 507.77 218.86 524.37 322.43 630.37 305.83"/><path class="cls-1" d="M697.79,162.47,678.09,42.32V18.77s-.22-5.69,5.67-5.69,4.67,6.24,4.67,6.24l.35,22.86,18.53,119.17,311-50.09L1001,.38H798.91a4.42,4.42,0,0,1-3.21,2.06A5.2,5.2,0,0,1,790.52.38H594.67L621.86,174Z"/><polygon class="cls-1" points="1282.95 686.95 1326.75 955.38 1458.78 934.75 1414.98 666.24 1282.95 686.95"/><polygon class="cls-1" points="1205.05 1128.88 1228.06 1265.03 1475.31 1223.24 1504.97 1215.44 1484.41 1083.05 1205.05 1128.88"/><polygon class="cls-1" points="1480.37 1235.37 1228.64 1276.48 1245.13 1377.13 1530.22 1377.13 1507.66 1227.96 1480.37 1235.37"/><polygon class="cls-1" points="1051.71 1294.01 1001.34 1301.42 1013.7 1377.13 1218.85 1377.13 1202.69 1280.19 1051.71 1294.01"/><polygon class="cls-1" points="814.47 1331.08 821.88 1377.13 1001.86 1377.13 989.71 1303.11 814.47 1331.08"/><polygon class="cls-1" points="532.22 1377.13 795.62 1377.13 788.86 1335.46 532.22 1377.13"/><polygon class="cls-1" points="450.94 799.08 275.31 644.63 303.7 821.97 450.94 799.08"/><polygon class="cls-1" points="235.02 546.41 196.12 294 196.12 270.53 0.38 301.02 0.38 373.57 205.52 550.84 235.02 546.41"/><polygon class="cls-1" points="217.8 561.63 239.18 579.1 236.57 558.76 217.8 561.63"/><polygon class="cls-1" points="245.44 620.29 184.96 566.85 0.38 596.53 0.38 867.6 278.28 824.67 245.44 620.29"/><polygon class="cls-1" points="0.38 406.9 0.38 584.12 173.64 556.64 0.38 406.9"/><polygon class="cls-1" points="22.95 889.29 67.41 1155.31 324.76 1116.12 282.94 850.48 22.95 889.29"/><polygon class="cls-1" points="13.53 891.18 0.38 893.17 0.38 1164.79 58.36 1155.31 13.53 891.18"/><polygon class="cls-1" points="0.38 1177.51 0.38 1377.13 138.66 1377.13 105.58 1162.44 0.38 1177.51"/><polygon class="cls-1" points="118.58 1159.59 152.3 1377.13 365.81 1377.13 326.69 1128.23 118.58 1159.59"/><polygon class="cls-1" points="168.32 0.38 0.38 0.38 0.38 61.4 173.37 34.68 168.32 0.38"/><path class="cls-1" d="M200.83,135,325.65,115.6s6.62-2.7,7.61,3.43-6.14,6.13-6.14,6.13L201.57,145l13.21,94.84,395.64-63.51L582.49.38H180.38Z"/><polygon class="cls-1" points="203.53 240.91 174.84 45.71 0.38 73.22 0.38 150.79 19.61 270.53 203.53 240.91"/><polygon class="cls-1" points="0.38 227.65 0.38 273.75 7.6 272.55 0.38 227.65"/><polygon class="cls-1" points="1316.95 60.56 1307.1 0.38 1027.09 0.38 1043.84 105.67 1316.95 60.56"/><polygon class="cls-1" points="1620.76 13.78 1618.57 0.38 1471.58 0.38 1333.08 0.38 1342.38 58.76 1620.76 13.78"/><polygon class="cls-1" points="1672.04 316.44 1625.52 39.36 1346.4 83.84 1389.85 361.43 1672.04 316.44"/><polygon class="cls-1" points="1435.86 639.01 1716.01 592.49 1674.6 329.73 1391.9 374.72 1435.86 639.01"/><polygon class="cls-1" points="1757.42 617.54 1772.24 712.12 1719.08 721.32 1705.78 626.23 1713.96 608.34 1438.93 653.84 1482.88 929.38 1640.35 905.36 1923.31 859.92 1923.31 573.85 1738.5 603.74 1757.42 617.54"/><polygon class="cls-1" points="1726.74 709.05 1760.48 703.43 1747.7 624.19 1726.74 610.39 1716.01 628.79 1726.74 709.05"/><polygon class="cls-1" points="1488.29 955.38 1530.31 1209.74 1681.7 1174.04 1858.92 1147.96 1923.31 1138.49 1923.31 886.54 1826.52 900.37 1488.29 955.38"/><polygon class="cls-1" points="1687.27 1184.42 1531.32 1221.38 1555.46 1377.13 1840.48 1377.13 1806.77 1168.22 1687.27 1184.42"/><polygon class="cls-1" points="1923.31 1152.56 1818.41 1168.22 1852.42 1377.13 1923.31 1377.13 1923.31 1152.56"/><polygon class="cls-1" points="1728.32 594.56 1923.31 561.16 1923.31 0.38 1870.51 0.38 1637.36 36.88 1728.32 594.56"/><polygon class="cls-1" points="1702.13 0.38 1630.41 0.38 1632.24 11.29 1702.13 0.38"/><path class="cls-1" d="M909.3,1126.55a8.5,8.5,0,0,0-7.39,12.7l7.39,12.83,7.39-12.83a8.41,8.41,0,0,0,1.11-4.2A8.5,8.5,0,0,0,909.3,1126.55Zm.12,10.77a2.72,2.72,0,1,1,2.72-2.71A2.71,2.71,0,0,1,909.42,1137.32Z"/><path class="cls-1" d="M909.42,1131.89a2.72,2.72,0,1,0,2.72,2.72A2.72,2.72,0,0,0,909.42,1131.89Z"/></g></g></svg>