<svg width="189" height="85" viewBox="0 0 189 85" fill="none" xmlns="http://www.w3.org/2000/svg">
<g clip-path="url(#clip0)">
<path fill-rule="evenodd" clip-rule="evenodd" d="M72.3 67.2C71.1 67.2 69.8 67 68.6 66.9C67.4 66.7 66.2 66.5 65 66.1C63.9 65.7 62.8 65.2 61.7 64.6C59.6 63.4 57.6 61.8 55.9 60C54.5 58.5 53.2 56.9 52 55.3L53 54.5C54.7 53 55.8 51.6 56.9 50.1C68.9 34.6 62 14.6 49.7 5.89997C34.5 -4.80003 17 0.499969 7.90003 10.2C4.40003 14 1.50003 19.3 0.500033 25.5C-0.299967 30 0.100033 34.4 0.900033 38C1.20003 39.1 1.40003 40.8 2.60003 41.3C3.10003 39.4 2.30003 37.7 2.10003 36C1.80003 34.2 1.50003 32.4 1.60003 30.4C2.20003 20.2 7.40003 12 12.9 7.69997C21.7 0.599968 37 -1.50003 48.2 6.89997C57 13.4 63.4 26.1 58.7 40.5C57 45.8 54.2 50.7 50.7 53.6C44.7 46.5 39.9 33.6 29.3 29.2C19.3 25 8.70003 30.5 6.60003 40C4.00003 51.5 13.7 59.5 25.5 61.9C34.2 63.7 40.5 62 46.1 59.1C46.8 58.7 49.5 57.1 50.8 56.2C52.1 57.9 53.5 59.4 55.1 60.9C56 61.8 56.9 62.7 57.9 63.5C58.9 64.3 59.9 65.1 61 65.8C62.1 66.5 63.3 67.1 64.5 67.6C65.8 68 67 68.3 68.3 68.6C69.6 68.8 70.9 69 72.2 69.1C73.5 69.2 74.8 69.2 76 69.2V67.2C74.7 67.2 73.5 67.3 72.3 67.2ZM42.1 58.8C38.4 60.4 33.6 61.3 29.3 61C18.3 60.2 8.70003 53 9.10003 43.5C9.50003 33.3 18.7 27.2 28.4 30.6C34 32.6 38 36.9 40.8 41.2C43.7 45.7 46.5 50.3 49.5 54.4C47.2 56.3 44.9 57.6 42.1 58.8Z" fill="black"/>
<path fill-rule="evenodd" clip-rule="evenodd" d="M108.7 73.2001C109.3 71.4001 109.6 69.5001 109.8 67.6001H107.8C107.8 70.4001 107.3 73.4001 106.1 76.1001C104.8 74.8001 103.5 73.4001 102.2 72.1001L98.0002 67.7001C97.3002 67.0001 96.6002 66.2001 96.0002 65.5001C95.7002 65.2001 95.4002 64.8001 95.1002 64.5001C95.2002 64.4001 95.3002 64.4001 95.5002 64.3001C96.3002 63.9001 97.1002 63.4001 97.9002 62.9001C98.7002 62.4001 99.5002 61.8001 100.3 60.9001C101 60.0001 101.5 59.0001 101.7 57.9001C101.9 56.8001 101.7 55.6001 101.2 54.5001C100.7 53.5001 99.9002 52.6001 99.0002 52.0001C98.1002 51.4001 96.8002 51.1001 95.7002 51.2001C93.6002 51.4001 91.5002 52.5001 90.4002 54.5001C89.9002 55.5001 89.7002 56.6001 89.7002 57.6001C89.7002 58.6001 90.0002 59.7001 90.4002 60.6001C90.9002 61.6001 91.6002 62.4001 92.3002 63.2001C91.3002 63.7001 90.4002 64.3001 89.4002 65.0001C87.8002 66.1001 86.3002 67.4001 85.3002 69.4001C84.5002 71.2001 83.9002 73.2001 84.0002 75.3001C84.1002 77.4001 85.0002 79.3001 86.4002 80.8001C87.7002 82.3001 89.4002 83.3001 91.2002 84.0001C93.0002 84.7001 95.0002 85.0001 96.9002 84.7001C98.8002 84.5001 100.7 83.9001 102.3 82.8001C103.8 81.8001 105.1 80.4001 106.1 78.9001C107.1 80.0001 108.1 81.1001 109.1 82.3001L110.6 80.9001C109.4 79.7001 108.3 78.5001 107.1 77.3001C107.8 75.9001 108.3 74.6001 108.7 73.2001ZM91.9002 59.8001C91.6002 59.0001 91.5002 58.3001 91.5002 57.4001C91.5002 56.6001 91.7002 55.8001 92.0002 55.2001C92.7002 53.9001 94.3002 53.1001 95.8002 53.0001C97.2002 52.9001 98.5002 53.9001 99.1002 55.1001C99.7002 56.4001 99.4002 57.9001 98.5002 59.0001C98.1002 59.5001 97.4002 60.0001 96.7002 60.5001C96.0002 61.0001 95.2002 61.4001 94.4002 61.8001C94.1002 61.9001 93.8002 62.1001 93.6002 62.3001C92.9002 61.6001 92.3002 60.7001 91.9002 59.8001ZM105.2 77.7001C104.3 79.2001 103.2 80.6001 101.7 81.5001C100.3 82.5001 98.6002 83.1001 96.8002 83.2001C93.4002 83.6001 89.7002 82.1001 87.6002 79.4001C86.6002 78.2001 86.0002 76.6001 86.0002 75.0001C86.0002 73.4001 86.6002 71.8001 87.4002 70.3001C88.1002 69.0001 89.5002 67.9001 90.9002 66.9001C91.9002 66.2001 92.9002 65.6001 94.0002 65.0001C94.4002 65.4001 94.7002 65.8001 95.1002 66.2001C95.7002 67.0001 96.4002 67.7001 97.1002 68.5001L101.2 73.0001C102.5 74.6001 103.9 76.1001 105.2 77.7001Z" fill="black"/>
<path fill-rule="evenodd" clip-rule="evenodd" d="M175.8 77.2002C174.9 77.2002 174.2 77.9002 174.2 78.8002C174.2 79.7002 174.9 80.4002 175.8 80.4002C176.7 80.4002 177.4 79.7002 177.4 78.8002C177.4 77.9002 176.7 77.2002 175.8 77.2002Z" fill="black"/>
<path fill-rule="evenodd" clip-rule="evenodd" d="M125.3 60.5999C126.1 59.6999 127.1 59.0999 128.2 58.6999C129.3 58.2999 130.5 58.0999 131.8 58.0999C132.6 58.0999 133.3 58.1999 134 58.3999C134.7 58.5999 135.3 58.8999 135.8 59.1999C136.3 59.4999 136.8 59.7999 137.2 60.1999C137.6 60.4999 137.9 60.7999 138.1 61.0999L138.3 60.9999C138.4 60.5999 138.5 60.1999 138.6 59.6999C138.7 59.1999 138.9 58.7999 139 58.3999C138.1 57.9999 137 57.5999 135.8 57.2999C134.6 56.9999 133.3 56.8999 131.8 56.8999C130 56.8999 128.3 57.1999 126.8 57.6999C125.3 58.1999 124 58.9999 122.9 59.9999C121.8 60.9999 121 62.2999 120.3 63.6999C119.7 65.1999 119.4 66.7999 119.4 68.6999C119.4 70.5999 119.7 72.2999 120.3 73.6999C120.9 75.1999 121.7 76.3999 122.8 77.3999C123.9 78.3999 125.1 79.1999 126.6 79.6999C128.1 80.1999 129.7 80.3999 131.4 80.3999C132.2 80.3999 133 80.2999 133.8 80.1999C134.6 80.0999 135.2 79.8999 135.8 79.7999C136.4 79.5999 136.9 79.3999 137.4 79.1999C137.8 78.9999 138.1 78.7999 138.3 78.5999L138.6 76.5999L138.5 76.4999C138.2 76.6999 137.8 76.9999 137.4 77.2999C136.9 77.5999 136.4 77.8999 135.9 78.1999C135.3 78.4999 134.7 78.6999 134 78.8999C133.3 79.0999 132.6 79.1999 131.8 79.1999C130.5 79.1999 129.3 78.9999 128.2 78.5999C127.1 78.1999 126.1 77.4999 125.3 76.6999C124.5 75.7999 123.8 74.6999 123.4 73.3999C122.9 72.0999 122.7 70.4999 122.7 68.5999C122.7 66.7999 122.9 65.1999 123.4 63.8999C123.8 62.4999 124.5 61.3999 125.3 60.5999Z" fill="black"/>
<path fill-rule="evenodd" clip-rule="evenodd" d="M166.2 59.8002C165.9 59.5002 165.5 59.1002 165.1 58.9002C164.3 58.3002 163.5 57.9002 162.5 57.5002C161.1 57.0002 159.6 56.8002 158 56.7002C156.4 56.7002 154.8 57.0002 153.5 57.5002C152.6 57.8002 151.8 58.2002 151.1 58.7002C150.6 59.0002 150.1 59.4002 149.7 59.8002C148.6 60.8002 147.8 62.1002 147.2 63.6002C146.6 65.1002 146.3 66.8002 146.3 68.7002C146.3 70.6002 146.6 72.3002 147.2 73.8002C147.8 75.3002 148.6 76.6002 149.6 77.6002C149.9 77.9002 150.3 78.3002 150.7 78.5002C151.5 79.1002 152.3 79.5002 153.3 79.9002C154.7 80.4002 156.2 80.6002 157.8 80.7002C159.4 80.7002 161 80.4002 162.3 79.9002C163.2 79.6002 164 79.2002 164.7 78.7002C165.2 78.4002 165.7 78.0002 166.1 77.6002C167.2 76.6002 168 75.3002 168.6 73.8002C169.2 72.3002 169.5 70.6002 169.5 68.7002C169.5 66.8002 169.2 65.1002 168.6 63.6002C168.1 62.1002 167.3 60.8002 166.2 59.8002ZM165.9 73.6002C165.4 75.0002 164.8 76.1002 164 77.0002C163.2 77.9002 162.2 78.6002 161.1 79.0002C160 79.4002 158.8 79.6002 157.5 79.6002C157.2 79.6002 156.8 79.6002 156.5 79.5002C155.9 79.4002 155.3 79.2002 154.8 79.0002C153.7 78.6002 152.7 77.9002 151.9 77.0002C151.1 76.1002 150.4 75.0002 150 73.6002C149.5 72.2002 149.3 70.6002 149.3 68.7002C149.3 66.8002 149.5 65.2002 150 63.8002C150.5 62.4002 151.1 61.3002 151.9 60.4002C152.7 59.5002 153.7 58.8002 154.8 58.4002C155.9 58.0002 157.1 57.8002 158.4 57.8002C158.7 57.8002 159.1 57.8002 159.4 57.9002C160 58.0002 160.6 58.2002 161.1 58.4002C162.2 58.8002 163.2 59.5002 164 60.4002C164.8 61.3002 165.5 62.4002 165.9 63.8002C166.4 65.2002 166.6 66.8002 166.6 68.7002C166.6 70.6002 166.4 72.2002 165.9 73.6002Z" fill="black"/>
<path fill-rule="evenodd" clip-rule="evenodd" d="M89.6999 40.5998C90.4999 39.7998 91.0999 38.7998 91.4999 37.5998C91.8999 36.3998 92.1999 35.0998 92.1999 33.5998C92.1999 32.3998 92.2999 31.0998 92.2999 29.7998C92.2999 28.4998 92.3999 27.1998 92.3999 25.9998C92.3999 24.7998 92.4999 23.5998 92.5999 22.5998C92.6999 21.4998 92.6999 20.5998 92.7999 19.7998C92.3999 19.8998 92.0999 19.9998 91.7999 19.9998C91.5999 19.9998 91.3999 19.9998 91.0999 19.9998C90.9999 19.9998 90.6999 19.9998 90.4999 19.9998C90.5999 20.5998 90.5999 21.7998 90.6999 23.4998C90.6999 25.1998 90.6999 27.5998 90.6999 30.7998C90.6999 31.4998 90.6999 32.1998 90.6999 33.0998C90.6999 33.8998 90.5999 34.6998 90.4999 35.4998C90.3999 36.2998 90.1999 37.0998 89.8999 37.7998C89.5999 38.5998 89.1999 39.1998 88.6999 39.7998C88.1999 40.3998 87.4999 40.7998 86.6999 41.1998C85.8999 41.5998 84.8999 41.6998 83.5999 41.6998C82.3999 41.6998 81.2999 41.5998 80.4999 41.2998C79.6999 40.9998 78.9999 40.5998 78.3999 40.0998C77.7999 39.5998 77.3999 38.9998 77.0999 38.2998C76.7999 37.5998 76.5999 36.8998 76.4999 36.0998C76.3999 35.2998 76.2999 34.5998 76.2999 33.7998C76.2999 32.9998 76.2999 32.1998 76.2999 31.4998C76.2999 30.2998 76.2999 29.0998 76.2999 27.8998C76.2999 26.7998 76.3999 25.6998 76.3999 24.6998C76.3999 23.6998 76.4999 22.7998 76.4999 21.9998C76.4999 21.1998 76.5999 20.5998 76.5999 20.0998C76.3999 20.0998 76.0999 20.1998 75.8999 20.1998C75.6999 20.1998 75.3999 20.1998 75.1999 20.1998C74.8999 20.1998 74.5999 20.1998 74.2999 20.1998C73.9999 20.1998 73.6999 20.0998 73.3999 20.0998C73.3999 21.0998 73.4999 22.2998 73.4999 23.6998C73.4999 25.0998 73.5999 26.7998 73.5999 28.5998C73.5999 29.3998 73.5999 30.2998 73.4999 31.0998C73.3999 31.8998 73.3999 32.7998 73.3999 33.8998C73.3999 37.0998 74.0999 39.4998 75.6999 40.9998C77.1999 42.4998 79.5999 43.2998 82.8999 43.2998C84.3999 43.2998 85.6999 43.0998 86.8999 42.6998C87.9999 42.0998 88.8999 41.4998 89.6999 40.5998Z" fill="black"/>
<path fill-rule="evenodd" clip-rule="evenodd" d="M105.1 38.4999C105 39.8999 105 41.2999 104.9 42.6999C105.4 42.6999 105.9 42.5999 106.5 42.5999C107.1 42.5999 107.6 42.5999 108.1 42.6999C108 41.2999 108 39.8999 107.9 38.4999C107.8 37.0999 107.8 35.6999 107.8 34.1999V28.4999C107.8 26.9999 107.8 25.5999 107.9 24.1999C108 22.7999 108 21.3999 108.1 19.8999C107.8 19.8999 107.5 19.9999 107.3 19.9999C107 19.9999 106.8 20.0999 106.5 20.0999C106.2 20.0999 106 20.0999 105.7 19.9999C105.4 19.9999 105.2 19.8999 104.9 19.8999C105 21.3999 105 22.7999 105.1 24.1999C105.2 25.5999 105.2 26.9999 105.2 28.4999V34.1999C105.1 35.6999 105.1 37.0999 105.1 38.4999Z" fill="black"/>
<path fill-rule="evenodd" clip-rule="evenodd" d="M137.3 20.0001C137.4 21.9001 137.5 24.0001 137.5 26.2001C137.5 28.4001 137.6 30.7001 137.6 33.0001V37.5001C136.6 36.5001 135.4 35.3001 134 33.8001C132.6 32.4001 131.2 30.8001 129.7 29.2001C128.2 27.6001 126.7 25.9001 125.1 24.3001C123.6 22.6001 122.1 21.1001 120.8 19.6001H120.3C120.3 20.4001 120.4 21.5001 120.4 23.0001C120.4 24.5001 120.4 26.3001 120.4 28.5001C120.4 29.2001 120.4 30.1001 120.4 31.0001C120.4 31.9001 120.4 32.9001 120.3 33.8001C120.3 34.8001 120.2 35.7001 120.2 36.7001C120.1 37.7001 120.1 38.6001 120.1 39.4001C120.1 40.2001 120 40.9001 119.9 41.5001C119.8 42.1001 119.8 42.5001 119.8 42.7001C120.2 42.7001 120.6 42.6001 121 42.6001C121.4 42.6001 121.8 42.6001 122.2 42.7001C122.2 42.5001 122.2 42.2001 122.1 41.7001C122.1 41.2001 122.1 40.6001 122 40.0001C122 39.3001 122 38.6001 121.9 37.8001C121.9 37.0001 121.9 36.3001 121.8 35.5001C121.8 34.7001 121.8 34.0001 121.8 33.3001C121.8 32.6001 121.8 32.0001 121.8 31.6001C121.8 29.8001 121.8 28.4001 121.8 27.4001C121.8 26.4001 121.8 25.5001 121.9 24.9001C124.8 27.9001 127.6 31.0001 130.5 34.1001C133.4 37.2001 136.1 40.2001 138.6 43.1001H139.1V42.0001C139.1 41.5001 139.1 40.8001 139.1 40.1001C139.1 39.4001 139.1 38.6001 139.1 37.8001C139.1 37.0001 139.1 36.2001 139.1 35.3001C139.1 34.5001 139.1 33.7001 139.1 33.0001V31.0001C139.1 30.4001 139.1 29.5001 139.2 28.5001C139.2 27.4001 139.3 26.4001 139.3 25.3001C139.4 24.2001 139.4 23.2001 139.5 22.2001C139.6 21.2001 139.6 20.5001 139.6 20.0001C139.2 20.1001 138.8 20.2001 138.5 20.2001C138.1 20.1001 137.7 20.1001 137.3 20.0001Z" fill="black"/>
<path fill-rule="evenodd" clip-rule="evenodd" d="M151.1 40.1001C152.2 41.1001 153.4 41.9001 154.9 42.4001C156.4 42.9001 158 43.1001 159.7 43.1001C160.5 43.1001 161.3 43.0001 162.1 42.9001C162.9 42.8001 163.5 42.6001 164.1 42.5001C164.7 42.3001 165.2 42.1001 165.7 41.9001C166.1 41.7001 166.4 41.5001 166.6 41.3001L166.9 39.3001L166.8 39.2001C166.5 39.4001 166.1 39.7001 165.7 40.0001C165.2 40.3001 164.7 40.6001 164.2 40.9001C163.6 41.2001 163 41.4001 162.3 41.6001C161.6 41.8001 160.9 41.9001 160.1 41.9001C158.8 41.9001 157.6 41.7001 156.5 41.3001C155.4 40.9001 154.4 40.2001 153.6 39.4001C152.8 38.5001 152.1 37.4001 151.7 36.1001C151.2 34.8001 151 33.2001 151 31.3001C151 29.5001 151.2 27.9001 151.7 26.6001C152.2 25.3001 152.8 24.2001 153.6 23.3001C154.4 22.4001 155.4 21.8001 156.5 21.4001C157.6 21.0001 158.8 20.8001 160.1 20.8001C160.9 20.8001 161.6 20.9001 162.3 21.1001C163 21.3001 163.6 21.6001 164.1 21.9001C164.6 22.2001 165.1 22.5001 165.5 22.9001C165.9 23.2001 166.2 23.5001 166.4 23.8001L166.6 23.7001C166.7 23.3001 166.8 22.9001 166.9 22.4001C167 21.9001 167.2 21.5001 167.3 21.1001C166.4 20.7001 165.3 20.3001 164.1 20.0001C162.9 19.7001 161.6 19.6001 160.1 19.6001C158.3 19.6001 156.6 19.9001 155.1 20.4001C153.6 20.9001 152.3 21.7001 151.2 22.7001C150.1 23.7001 149.3 25.0001 148.6 26.4001C148 27.9001 147.7 29.5001 147.7 31.4001C147.7 33.3001 148 35.0001 148.6 36.4001C149.2 37.9001 150.1 39.1001 151.1 40.1001Z" fill="black"/>
<path fill-rule="evenodd" clip-rule="evenodd" d="M188.2 41.2998C188.2 41.0998 188.2 40.8998 188.3 40.7998C187.8 40.8998 187.1 40.9998 186.4 40.9998C185.7 41.0998 184.9 41.0998 184.1 41.0998C183.3 41.0998 182.5 41.0998 181.6 41.0998H179.3C179.3 40.6998 179.3 40.0998 179.2 39.1998C179.2 38.3998 179.2 37.2998 179.2 36.0998V34.0998V32.9998C179.2 32.5998 179.2 32.3998 179.2 32.0998C179.2 31.8998 179.2 31.6998 179.2 31.4998C179.6 31.4998 180.1 31.4998 180.8 31.4998C181.5 31.4998 182.2 31.4998 183 31.4998C183.8 31.4998 184.5 31.4998 185.3 31.5998C186.1 31.5998 186.7 31.6998 187.3 31.7998C187.2 31.4998 187.2 31.0998 187.2 30.7998C187.2 30.3998 187.2 30.0998 187.3 29.7998C186.8 29.7998 186.3 29.8998 185.8 29.8998C185.3 29.8998 184.7 29.9998 184 29.9998C183.4 29.9998 182.7 30.0998 181.9 30.0998C181.1 30.0998 180.3 30.0998 179.3 30.0998C179.3 29.6998 179.3 29.0998 179.3 28.1998C179.3 27.3998 179.3 26.4998 179.3 25.6998C179.3 24.8998 179.3 24.1998 179.4 23.4998C179.4 22.8998 179.5 22.1998 179.5 21.4998C180.6 21.4998 181.5 21.4998 182.3 21.4998C183.1 21.4998 183.8 21.5998 184.4 21.5998C185.1 21.5998 185.7 21.6998 186.3 21.6998C186.9 21.6998 187.5 21.7998 188.2 21.7998C188.1 21.4998 188.1 21.0998 188.1 20.7998C188.1 20.4998 188.1 20.0998 188.2 19.7998C187.2 19.7998 186.2 19.8998 185.3 19.8998C184.3 19.8998 183.3 19.8998 182.4 19.8998C181.5 19.8998 180.4 19.8998 179.4 19.8998C178.4 19.8998 177.4 19.7998 176.4 19.7998C176.5 21.1998 176.5 22.5998 176.6 23.9998C176.7 25.3998 176.7 26.7998 176.7 28.2998V33.9998C176.7 35.4998 176.7 36.8998 176.6 38.2998C176.5 39.6998 176.5 41.0998 176.4 42.4998C177.4 42.4998 178.4 42.3998 179.4 42.3998H182.4H185.4C186.4 42.3998 187.4 42.3998 188.4 42.4998C188.3 42.2998 188.3 41.9998 188.3 41.5998C188.2 41.6998 188.2 41.4998 188.2 41.2998Z" fill="black"/>
</g>
<defs>
<clipPath id="clip0">
<rect width="188.3" height="84.6" fill="white"/>
</clipPath>
</defs>
</svg>
