<svg width="31" height="29" viewBox="0 0 31 29" fill="none" xmlns="http://www.w3.org/2000/svg">
<path fill-rule="evenodd" clip-rule="evenodd" d="M16.2698 1.45938C15.9713 1.17228 15.4965 1.18159 15.2094 1.48017C14.9223 1.77875 14.9316 2.25353 15.2302 2.54063L26.8879 13.75L1.75 13.75C1.33579 13.75 1 14.0858 1 14.5C1 14.9142 1.33579 15.25 1.75 15.25L26.8879 15.25L15.2302 26.4594C14.9316 26.7465 14.9223 27.2213 15.2094 27.5198C15.4965 27.8184 15.9713 27.8277 16.2698 27.5406L29.2698 15.0406C29.4169 14.8992 29.5 14.704 29.5 14.5C29.5 14.296 29.4169 14.1008 29.2698 13.9594L16.2698 1.45938Z" fill="#FDFBF7"/>
<path fill-rule="evenodd" clip-rule="evenodd" d="M15.2302 26.4594C14.9316 26.7465 14.9223 27.2213 15.2094 27.5198C15.4965 27.8184 15.9713 27.8277 16.2698 27.5406L29.2698 15.0406C29.4169 14.8992 29.5 14.704 29.5 14.5C29.5 14.296 29.4169 14.1008 29.2698 13.9594L16.2698 1.45938C15.9713 1.17228 15.4965 1.18159 15.2094 1.48017C14.9223 1.77875 14.9316 2.25353 15.2302 2.54063L26.8879 13.75L1.75 13.75C1.33579 13.75 1 14.0858 1 14.5C1 14.9142 1.33579 15.25 1.75 15.25L26.8879 15.25L15.2302 26.4594ZM24.4051 16.25L14.5371 25.7385C13.8404 26.4084 13.8187 27.5163 14.4885 28.2129C15.1584 28.9096 16.2663 28.9313 16.9629 28.2615L29.9629 15.7615C30.3061 15.4315 30.5 14.976 30.5 14.5C30.5 14.024 30.3061 13.5685 29.9629 13.2385L16.9629 0.738544C16.2663 0.0686561 15.1584 0.0903777 14.4885 0.787062C13.8187 1.48374 13.8404 2.59157 14.5371 3.26146L24.4051 12.75L1.75 12.75C0.783501 12.75 0 13.5335 0 14.5C0 15.4665 0.783501 16.25 1.75 16.25L24.4051 16.25Z" fill="#134729"/>
</svg>
